# xmcd
#
# Track frame offsets: 
#        150
#        34060
#        77425
#        121734
#        169219
#        205521
#
# Disc length: 3512 seconds
#
# Revision: 0
# Processed by: cddbd v1.5.2PL0 Copyright (c) Steve Scherf et al.
# Submitted via: ExactAudioCopy v0.99pb5
#
DISCID=3d0db606
DTITLE=Van Der Graaf Generator  - Godbluff 1975  (Remastered) 
DYEAR=1900
DGENRE=
TTITLE0=The Undercover Man
TTITLE1=Scorched Earth
TTITLE2=Arrow
TTITLE3=The Sleepwalkers
TTITLE4=Forsaken Gardens (bonus)
TTITLE5=A Louse Is Not A Home (bonus)
EXTD=
EXTT0=
EXTT1=
EXTT2=
EXTT3=
EXTT4=
EXTT5=
PLAYORDER=
